<?xml version="1.0" encoding="utf-8"?>
<!-- Generator: Adobe Illustrator 23.0.1, SVG Export Plug-In . SVG Version: 6.00 Build 0)  -->
<svg version="1.1" id="Layer_1" xmlns="http://www.w3.org/2000/svg" xmlns:xlink="http://www.w3.org/1999/xlink" x="0px" y="0px"
	 viewBox="0 0 22 20" style="enable-background:new 0 0 22 20;" xml:space="preserve">
<style type="text/css">
	.st0{fill:#F2F8EE;}
</style>
<g>
	<path class="st0" d="M0.3,16.9V3.3h5.9c3.3,0,5,1.3,5,4c0,2.7-1.9,4.1-5.6,4.1H4.2v5.6H0.3z M4.2,10.1h0.9c1.4,0,2.2-1,2.2-2.9
		c0-1.8-0.7-2.7-2.2-2.7H4.2V10.1z"/>
	<path class="st0" d="M21.6,13.7v3.3H11.4V15c0.8-0.9,1.8-1.9,2.9-2.9C16.7,9.7,18,8,18,6.7c0-1.6-0.6-2.5-1.9-2.5
		c-1.6,0-2.4,1-2.4,3c0,0.5,0.1,1.1,0.3,2l-2.1-0.5c-0.2-0.6-0.2-1.1-0.2-1.5c0-2.8,1.7-4.2,5.1-4.2c1.4,0,2.6,0.4,3.6,1.1
		c0.9,0.7,1.4,1.6,1.4,2.7c0,1.3-0.9,2.7-2.8,4.2l-1.2,1l-1.4,1.2c-0.1,0.1-0.3,0.2-0.6,0.5H21.6z"/>
</g>
</svg>
