<?xml version="1.0" encoding="utf-8"?>
<!-- Generator: Adobe Illustrator 28.1.0, SVG Export Plug-In . SVG Version: 6.00 Build 0)  -->
<svg version="1.1" id="Layer_1" xmlns="http://www.w3.org/2000/svg" xmlns:xlink="http://www.w3.org/1999/xlink" x="0px" y="0px"
	 viewBox="0 0 432 144" style="enable-background:new 0 0 432 144;" xml:space="preserve">
<style type="text/css">
	.st0{fill:#1D3557;}
	.st1{fill:#E63946;}
	.st2{fill:none;stroke:#E63946;stroke-width:6;stroke-linecap:round;stroke-miterlimit:10;}
</style>
<path class="st0" d="M85.6,79.7c0,12.3-0.4,21.3-1.3,27.2c-0.3,2.4-0.7,3.9-1.2,4.8c-0.5,1.1-1.4,1.6-2.7,1.6
	c-0.8,0-1.5-0.3-2.1-0.8s-0.9-1.2-0.9-1.9c0,0.1,0.2-0.6,0.5-2.1c0.4-1.7,0.7-3.6,0.9-5.8c0.3-3.1,0.5-6.5,0.5-10.4
	c0-1.7,0-3.4-0.1-5.3c0-1.8-0.1-2.9-0.1-3c0-2.7,0.2-4.7,0.7-5.7c0.5-1.2,1.4-1.8,2.7-1.8C84.7,76.5,85.6,77.6,85.6,79.7z
	 M86.9,68.1c0,2.9-1.4,4.3-4.2,4.3c-1.1,0-2.1-0.4-2.9-1.2c-0.8-0.8-1.2-1.7-1.2-2.9c0-1.2,0.4-2.3,1.3-3.1c0.9-0.9,1.9-1.3,3.1-1.3
	s2.1,0.4,2.8,1.1S86.9,66.9,86.9,68.1z"/>
<path class="st0" d="M127.4,101.9c0,2.1-2.1,4.8-6.4,8.1c-3,2.3-7,3.5-11.9,3.5s-8.7-1.6-11.5-4.8c-2.9-3.3-4.3-7.8-4.3-13.5
	c0-7.4,1.6-13.1,4.9-17.2s7.8-6.2,13.6-6.2c4.3,0,7.8,1,10.5,2.9c2.6,1.8,3.9,3.9,3.9,6.4c0,2.1-1,3.1-2.9,3.1c-0.9,0-1.5-0.3-2-0.9
	c-0.4-0.9-0.9-2-1.7-3.4c-1.4-1.6-4.1-2.4-7.9-2.4c-4,0-7,1.5-9.2,4.5s-3.2,7.3-3.2,12.8c0,8.8,3.5,13.2,10.5,13.2
	c4,0,7.5-1.4,10.4-4.3c0,0,0.6-0.9,1.9-2.7c0.7-1.1,1.6-1.6,2.5-1.6c0.7,0,1.4,0.3,2,0.8C127.1,100.6,127.4,101.2,127.4,101.9z"/>
<path class="st0" d="M223.3,86.9c0,5.6-0.8,11.4-2.4,17.5c-0.8,3-2,4.6-3.6,4.6s-2.5-0.9-2.5-2.8c0-0.4,0-0.7,0.1-0.9
	c-2.1,1.1-4.2,1.7-6.4,1.7c-3.9,0-7-1.1-9.2-3.3c-2.2-2.2-3.3-5.3-3.3-9.3s1.2-7.2,3.6-9.6s5.5-3.6,9.5-3.6c3.4,0,6.3,1.1,8.7,3.4
	c-0.4-8-3.4-12-8.9-12c-1.2,0-2.6,0.4-4,1.1s-2.3,1.1-2.8,1.1c-0.7,0-1.3-0.3-1.9-0.9c-0.5-0.6-0.8-1.2-0.8-2c0-1.2,0.9-2.3,2.7-3.4
	c1.9-1.1,4.1-1.7,6.8-1.7C218.4,66.8,223.3,73.5,223.3,86.9z M217.1,94c0-5.2-2.4-7.7-7.3-7.7c-5.3,0-8,2.6-8,7.7
	c0,5.2,2.6,7.7,7.9,7.7c2.3,0,4.1-0.7,5.4-2S217.1,96.5,217.1,94z"/>
<path class="st0" d="M263.6,92.9c0,2.1-2.1,4.8-6.4,8.1c-3,2.3-7,3.5-11.9,3.5s-8.7-1.6-11.5-4.8c-2.9-3.3-4.3-7.8-4.3-13.5
	c0-7.4,1.6-13.1,4.9-17.2s7.8-6.2,13.6-6.2c4.3,0,7.8,1,10.5,2.9c2.6,1.8,3.9,3.9,3.9,6.4c0,2.1-1,3.1-2.9,3.1c-0.9,0-1.5-0.3-2-0.9
	c-0.4-0.9-0.9-2-1.7-3.4c-1.4-1.6-4.1-2.4-7.9-2.4c-4,0-7,1.5-9.2,4.5s-3.2,7.3-3.2,12.8c0,8.8,3.5,13.2,10.5,13.2
	c4,0,7.5-1.4,10.4-4.3c0,0,0.7-0.9,1.9-2.7c0.7-1.1,1.6-1.6,2.5-1.6c0.7,0,1.4,0.3,2,0.8C263.3,91.6,263.6,92.2,263.6,92.9z"/>
<path class="st0" d="M366,74.2c0,6-1.7,10.7-5.2,14.3c-3.5,3.5-8.2,5.3-14,5.3c-4.8,0-8.6-1.7-11.4-5c-2.7-3.3-4.1-7.9-4.1-13.8
	c0-6.2,1.7-11,5-14.4s7.8-5,13.5-5c4.8,0,8.7,1.7,11.7,5.1C364.5,64.1,366,68.6,366,74.2z M360,74.2c0-4.1-1-7.3-3-9.6
	c-2-2.3-4.7-3.5-8.1-3.5c-7.7,0-11.5,4.6-11.5,13.8c0,4.2,0.8,7.5,2.5,9.8s4.1,3.4,7.2,3.4c4,0,7.2-1.2,9.5-3.7
	C358.8,82.1,360,78.7,360,74.2z"/>
<path class="st0" d="M401.3,70.3c0,2.1-0.7,3.7-2.2,4.7c-0.7,0.4-2.7,1-6.2,1.7c-4.6,1-8.5,1.4-11.8,1.4c-1.5,0-3.3-0.1-5.4-0.3
	c0,7.7,2.9,11.5,8.7,11.5c1.6,0,3.1-0.5,4.4-1.4c0.7-0.4,1.8-1.5,3.5-3.3c0.6-0.6,1.2-0.9,1.9-0.9c0.9,0,1.6,0.3,2.2,1
	c0.6,0.6,0.9,1.4,0.9,2.4c0,0.8-0.3,1.5-0.9,2.1c-3.5,3.8-7.6,5.7-12.3,5.7c-9.7,0-14.6-5.6-14.6-16.9c0-5.8,1.5-10.8,4.6-15
	c3.5-4.8,7.9-7.2,13-7.2c4,0,7.4,1.4,10,4.1C400,62.7,401.3,66.1,401.3,70.3z M395.3,70.7c-0.1-2.8-0.9-5.1-2.2-6.7
	c-1.4-1.6-3-2.5-5.1-2.5c-2.6,0-5,0.9-7,2.8c-2.1,1.9-3.6,4.6-4.6,8.1c1.4,0.2,3,0.2,4.6,0.2C384.9,72.7,389.7,72,395.3,70.7z"/>
<path class="st0" d="M34.2,65.1c-0.4,0-0.7,0-1.1,0c0.2,0,0.4-0.1,0.7-0.1C33.9,65,34,65,34.2,65.1z"/>
<path class="st1" d="M74.6,83.9c-0.3,0.7-0.8,1.3-1.6,1.7c-0.8,0.4-1.5,0.5-2.2,0.2c-0.5-0.2-1-0.5-1.5-1.1
	c-0.8-0.8-1.2-1.2-1.3-1.3c-2.2-1.7-6.7-4-13.5-7c-0.1,0-0.2-0.1-0.3-0.2C53,79.7,52,82.9,51,85.7c-1.3,3.8-2.4,7-3.3,9.4l-0.3,0.7
	c-0.6,1.7-1.3,3.4-1.9,5.1c-1.2,3.2-2.3,6.1-3.4,8.8c-0.2,0.4-0.4,0.9-0.5,1.3l0,0c-0.6,0.8-1.5,1.3-2.6,1.3c-1.8,0-3.2-1.4-3.2-3.2
	c0-0.3,0-0.5,0.1-0.7s0.1-0.4,0.2-0.5c0.1-0.2,0.2-0.3,0.2-0.5l0,0c1.2-2.8,2.4-5.7,3.5-8.5c0.8-1.9,1.5-3.8,2.2-5.7
	c0.6-1.7,1.7-4.9,3.3-9.5c0.9-2.7,2-5.8,3.3-9.5c-6.4-2.2-11.3-3.3-14.7-3h-0.1c-1.7,0-3-1.4-3-3.1c0-1.5,1-2.7,2.4-3
	c0.3,0,0.7,0,1.1,0c4.3,0,9.9,1.1,16.7,3.5c1-3.1,2-6.2,3-9.3c1.5-5.1,2.3-7.8,2.4-7.8c0.9-2.5,2.3-3.4,4.1-2.7
	c1.1,0.4,1.8,1.1,1.9,2.1c0.2,0.9,0,2.3-0.5,4.2c-1.3,4.5-3,9.8-5.1,15.7C69.9,75.9,75.9,80.3,74.6,83.9z"/>
<path class="st1" d="M191.3,74.9c-0.3,0.7-0.8,1.3-1.6,1.7c-0.8,0.4-1.5,0.5-2.2,0.2c-0.5-0.2-1-0.5-1.5-1.1
	c-0.8-0.8-1.2-1.2-1.3-1.3c-2.2-1.7-6.7-4-13.5-7c-0.1,0-0.2-0.1-0.3-0.2c-1.2,3.5-2.2,6.7-3.2,9.5c-1.3,3.8-2.4,7-3.3,9.4l-0.3,0.7
	c-0.6,1.7-1.3,3.4-1.9,5.1c-1.2,3.2-2.3,6.1-3.4,8.8c-0.2,0.4-0.4,0.9-0.5,1.3l0,0c-0.6,0.8-1.5,1.3-2.6,1.3c-1.8,0-3.2-1.4-3.2-3.2
	c0-0.3,0-0.5,0.1-0.7s0.1-0.4,0.2-0.5c0.1-0.2,0.2-0.3,0.2-0.5l0,0c1.2-2.8,2.4-5.7,3.5-8.5c0.8-1.9,1.5-3.8,2.2-5.7
	c0.6-1.7,1.7-4.9,3.3-9.5c0.9-2.7,2-5.8,3.3-9.5c-6.4-2.2-11.3-3.3-14.7-3h-0.1c-1.7,0-3-1.4-3-3.1c0-1.5,1-2.7,2.4-3
	c0.3,0,0.7,0,1.1,0c4.3,0,9.9,1.1,16.7,3.5c1-3.1,2-6.2,3-9.3c1.5-5.1,2.3-7.8,2.4-7.8c0.9-2.5,2.3-3.4,4.1-2.7
	c1.1,0.4,1.8,1.1,1.9,2.1c0.2,0.9,0,2.3-0.5,4.2c-1.3,4.5-3,9.8-5.1,15.7C186.6,66.9,192.6,71.3,191.3,74.9z"/>
<path class="st1" d="M327.6,65.9c-0.3,0.7-0.8,1.3-1.6,1.7c-0.8,0.4-1.5,0.5-2.2,0.2c-0.5-0.2-1-0.5-1.5-1.1
	c-0.8-0.8-1.2-1.2-1.3-1.3c-2.2-1.7-6.7-4-13.5-7c-0.1,0-0.2-0.1-0.3-0.2c-1.2,3.5-2.2,6.7-3.2,9.5c-1.3,3.8-2.4,7-3.3,9.4l-0.3,0.7
	c-0.6,1.7-1.3,3.4-1.9,5.1c-1.2,3.2-2.3,6.1-3.4,8.8c-0.2,0.4-0.4,0.9-0.5,1.3l0,0c-0.6,0.8-1.5,1.3-2.6,1.3c-1.8,0-3.2-1.4-3.2-3.2
	c0-0.3,0-0.5,0.1-0.7s0.1-0.4,0.2-0.5c0.1-0.2,0.2-0.3,0.2-0.5l0,0c1.2-2.8,2.4-5.7,3.5-8.5c0.8-1.9,1.5-3.8,2.2-5.7
	c0.6-1.7,1.7-4.9,3.3-9.5c0.9-2.7,2-5.8,3.3-9.5c-6.4-2.2-11.3-3.3-14.7-3h-0.1c-1.7,0-3-1.4-3-3.1c0-1.5,1-2.7,2.4-3
	c0.3,0,0.7,0,1.1,0c4.3,0,9.9,1.1,16.7,3.5c1-3.1,2-6.2,3-9.3c1.5-5.1,2.3-7.8,2.4-7.8c0.9-2.5,2.3-3.4,4.1-2.7
	c1.1,0.4,1.8,1.1,1.9,2.1c0.2,0.9,0,2.3-0.5,4.2c-1.3,4.5-3,9.8-5.1,15.7C322.9,57.9,328.9,62.3,327.6,65.9z"/>
<path class="st1" d="M35.9,108.5c0.1-0.4,0.2-0.7,0.5-1c-0.1,0.2-0.1,0.3-0.2,0.5C36,108.1,35.9,108.3,35.9,108.5z"/>
<path class="st1" d="M42.1,109.7c-0.1,0.5-0.3,0.9-0.5,1.3C41.7,110.6,41.9,110.2,42.1,109.7z"/>
<line class="st2" x1="41.6" y1="129.6" x2="401.3" y2="107.5"/>
</svg>
